{
  "accessors": [
    {
      "bufferView": 2,
      "componentType": 5126,
      "count": 5473,
      "max": [
        1.2236008644104004,
        0.95189189910888672,
        0.50614213943481445
      ],
      "min": [
        -1.1012542247772217,
        -1.0481081008911133,
        -0.50778794288635254
      ],
      "type": "VEC3"
    },
    {
      "bufferView": 2,
      "byteOffset": 65676,
      "componentType": 5126,
      "count": 5473,
      "max": [
        1,
        1,
        1
      ],
      "min": [
        -1,
        -1,
        -1
      ],
      "type": "VEC3"
    },
    {
      "bufferView": 1,
      "componentType": 5126,
      "count": 5473,
      "max": [
        1.0000002384185791,
        1
      ],
      "min": [
        0,
        0
      ],
      "type": "VEC2"
    },
    {
      "bufferView": 0,
      "componentType": 5125,
      "count": 23724,
      "max": [
        5472
      ],
      "min": [
        0
      ],
      "type": "SCALAR"
    },
    {
      "bufferView": 2,
      "byteOffset": 131352,
      "componentType": 5126,
      "count": 104,
      "max": [
        -0.17106384038925171,
        1,
        0.5069650411605835
      ],
      "min": [
        -0.45579928159713745,
        -1,
        -0.5069650411605835
      ],
      "type": "VEC3"
    },
    {
      "bufferView": 2,
      "byteOffset": 132600,
      "componentType": 5126,
      "count": 104,
      "max": [
        0,
        1,
        1
      ],
      "min": [
        -0.99210387468338013,
        -1,
        -1
      ],
      "type": "VEC3"
    },
    {
      "bufferView": 1,
      "byteOffset": 43784,
      "componentType": 5126,
      "count": 104,
      "max": [
        0.87500005960464478,
        1
      ],
      "min": [
        0.125,
        0.25
      ],
      "type": "VEC2"
    },
    {
      "bufferView": 0,
      "byteOffset": 94896,
      "componentType": 5125,
      "count": 192,
      "max": [
        103
      ],
      "min": [
        0
      ],
      "type": "SCALAR"
    },
    {
      "bufferView": 2,
      "byteOffset": 133848,
      "componentType": 5126,
      "count": 2688,
      "max": [
        3.6615743637084961,
        3.7591619491577148,
        0.54947566986083984
      ],
      "min": [
        -3.4806010723114014,
        -3.3828773498535156,
        0
      ],
      "type": "VEC3"
    },
    {
      "bufferView": 2,
      "byteOffset": 166104,
      "componentType": 5126,
      "count": 2688,
      "max": [
        1,
        1,
        0.97148126363754272
      ],
      "min": [
        -1,
        -1,
        -1
      ],
      "type": "VEC3"
    },
    {
      "bufferView": 1,
      "byteOffset": 44616,
      "componentType": 5126,
      "count": 2688,
      "max": [
        0,
        0
      ],
      "min": [
        0,
        0
      ],
      "type": "VEC2"
    },
    {
      "bufferView": 0,
      "byteOffset": 95664,
      "componentType": 5125,
      "count": 4410,
      "max": [
        2687
      ],
      "min": [
        0
      ],
      "type": "SCALAR"
    }
  ],
  "asset": {
    "extras": {
      "author": "Spark (https://sketchfab.com/muammar.yacoob)",
      "license": "CC-BY-4.0 (http://creativecommons.org/licenses/by/4.0/)",
      "source": "https://sketchfab.com/3d-models/cheese-1798c98ab7df4ec6a55eb9f9b7835485",
      "title": "Cheese"
    },
    "generator": "Sketchfab-7.81.0",
    "version": "2.0"
  },
  "bufferViews": [
    {
      "buffer": 0,
      "byteLength": 113304,
      "byteOffset": 0,
      "name": "floatBufferViews",
      "target": 34963
    },
    {
      "buffer": 0,
      "byteLength": 66120,
      "byteOffset": 113304,
      "byteStride": 8,
      "name": "floatBufferViews",
      "target": 34962
    },
    {
      "buffer": 0,
      "byteLength": 198360,
      "byteOffset": 179424,
      "byteStride": 12,
      "name": "floatBufferViews",
      "target": 34962
    }
  ],
  "buffers": [
    {
      "byteLength": 377784,
      "uri": "scene.bin"
    }
  ],
  "materials": [
    {
      "doubleSided": true,
      "name": "Plate__0",
      "pbrMetallicRoughness": {
        "baseColorFactor": [
          1,
          1,
          1,
          1
        ],
        "metallicFactor": 0,
        "roughnessFactor": 0.59999999999999998
      }
    },
    {
      "doubleSided": true,
      "emissiveFactor": [
        0,
        0,
        0
      ],
      "name": "Cheese",
      "pbrMetallicRoughness": {
        "baseColorFactor": [
          0.97430799999999995,
          1,
          0.22211500000000001,
          1
        ],
        "metallicFactor": 0,
        "roughnessFactor": 0.59999999999999998
      }
    },
    {
      "doubleSided": true,
      "emissiveFactor": [
        0,
        0,
        0
      ],
      "name": "Crust",
      "pbrMetallicRoughness": {
        "baseColorFactor": [
          0.20791699999999999,
          0,
          0.00075953000000000001,
          1
        ],
        "metallicFactor": 0,
        "roughnessFactor": 0.59999999999999998
      }
    }
  ],
  "meshes": [
    {
      "name": "Cheese_Cheese_0",
      "primitives": [
        {
          "attributes": {
            "NORMAL": 1,
            "POSITION": 0,
            "TEXCOORD_0": 2
          },
          "indices": 3,
          "material": 1,
          "mode": 4
        }
      ]
    },
    {
      "name": "Crust_Crust_0",
      "primitives": [
        {
          "attributes": {
            "NORMAL": 5,
            "POSITION": 4,
            "TEXCOORD_0": 6
          },
          "indices": 7,
          "material": 2,
          "mode": 4
        }
      ]
    },
    {
      "name": "Plate__0",
      "primitives": [
        {
          "attributes": {
            "NORMAL": 9,
            "POSITION": 8,
            "TEXCOORD_0": 10
          },
          "indices": 11,
          "material": 0,
          "mode": 4
        }
      ]
    }
  ],
  "nodes": [
    {
      "children": [
        1
      ],
      "name": "RootNode (gltf orientation matrix)",
      "rotation": [
        -0.70710678118654746,
        -0,
        -0,
        0.70710678118654757
      ]
    },
    {
      "children": [
        2
      ],
      "name": "RootNode (model correction matrix)"
    },
    {
      "children": [
        3
      ],
      "matrix": [
        1,
        0,
        0,
        0,
        0,
        0,
        1,
        0,
        0,
        -1,
        0,
        0,
        0,
        0,
        0,
        1
      ],
      "name": "741c53ab0493483a8ee5631587da3a61.fbx"
    },
    {
      "children": [
        4,
        6,
        9,
        13
      ],
      "name": "RootNode"
    },
    {
      "children": [
        5
      ],
      "matrix": [
        -65.155832803290963,
        -44.527135765708579,
        -61.417030473735487,
        0,
        -32.40134137821245,
        89.539574512336159,
        -30.542088974418615,
        0,
        68.592054721299746,
        -1.0718647115348782e-05,
        -72.767633623962695,
        0,
        735.88916015625,
        495.8309326171875,
        692.5791015625,
        1
      ],
      "name": "Camera"
    },
    {
      "name": ""
    },
    {
      "children": [
        7
      ],
      "matrix": [
        -29.08647719990347,
        -5.5189064575668629,
        -95.517119101714371,
        0,
        56.639309131094492,
        79.467234285632031,
        -21.839123978419661,
        0,
        77.110087759933748,
        -60.452463565620441,
        -19.988346967737169,
        0,
        407.62454223632812,
        590.38623046875,
        -100.54539489746094,
        1
      ],
      "name": "Light"
    },
    {
      "children": [
        8
      ],
      "matrix": [
        1,
        0,
        0,
        0,
        0,
        2.2204460492503131e-16,
        1,
        0,
        0,
        -1,
        2.2204460492503131e-16,
        0,
        0,
        0,
        0,
        1
      ],
      "name": ""
    },
    {
      "name": ""
    },
    {
      "children": [
        10,
        11
      ],
      "matrix": [
        100,
        0,
        0,
        0,
        0,
        -1.6292067939183141e-05,
        -99.999999999998678,
        0,
        0,
        99.999999999998678,
        -1.6292067939183141e-05,
        0,
        8.038264274597168,
        52.205013275146484,
        -4.8108129501342773,
        1
      ],
      "name": "Cheese"
    },
    {
      "mesh": 0,
      "name": "Cheese_Cheese_0"
    },
    {
      "children": [
        12
      ],
      "matrix": [
        1,
        0,
        0,
        0,
        0,
        1,
        -2.646977960169688e-23,
        0,
        0,
        2.646977960169688e-23,
        1,
        0,
        -0.67014390230178833,
        -0.048108130693435669,
        -0.00082290172576904297,
        1
      ],
      "name": "Crust"
    },
    {
      "mesh": 1,
      "name": "Crust_Crust_0"
    },
    {
      "children": [
        14
      ],
      "matrix": [
        90.250328063964844,
        0,
        0,
        0,
        0,
        -1.4703644763516821e-05,
        -90.25032806396365,
        0,
        0,
        90.25032806396365,
        -1.4703644763516821e-05,
        0,
        0,
        0,
        0,
        1
      ],
      "name": "Plate"
    },
    {
      "mesh": 2,
      "name": "Plate__0"
    }
  ],
  "scene": 0,
  "scenes": [
    {
      "name": "OSG_Scene",
      "nodes": [
        0
      ]
    }
  ]
}

